<svg width='559pt' height='897pt' xmlns="http://www.w3.org/2000/svg" viewBox="0 0 78.76419 135.90858"><defs><style>.cls-1{fill:none;stroke:#221f20;stroke-miterlimit:10;stroke-width:0.51024px;}</style></defs><path class="cls-1" d="M134.90357,143.15057l.14173-90.652,15.42047,3.14646v87.5622c0,35.09292-39.28818,59.5559-65.56535,34.07244l12.58583-15.222c17.29133,15.789,37.36063,2.69291,37.41732-18.90709Z" transform="translate(-71.9567 -52.15487)"/><path class="cls-1" d="M121.439,56.60883l13.6063-4.11023-.14173,90.652c-.085,21.48662-19.95591,34.7811-37.41732,18.90709l-12.58583,15.222a37.8513,37.8513,0,0,0,13.86142,8.73072,51.08227,51.08227,0,0,1-26.44725-11.62205l12.72756-15.56221c19.58741,11.25355,33.56221,9.29764,36.39685-18.85039Z" transform="translate(-71.9567 -52.15487)"/><line class="cls-1" x1="13.08545" y1="106.67129" x2="25.52954" y2="109.90279"/></svg>